<svg width="238" height="63" viewBox="0 0 238 63" fill="none" xmlns="http://www.w3.org/2000/svg">
<g clip-path="url(#clip0_137_7586)">
<path d="M194.818 25.8057L181.261 11.1109H97.4091L89.3753 4.01691H33.6411L26.1095 11.1109H10.042V44.5542L24.1011 59.249H138.582V51.1415H194.818V25.8057Z" fill="#FF4F4F" fill-opacity="0.63"/>
<path d="M0.157216 34.2491H1.57051V2.08317H17.791V0.568787H0.157216V34.2491Z" fill="#FF4F4F"/>
<path d="M174.135 61.6273H204.636V21.2721L196.312 12.3518L195.312 13.4232L203.222 21.8992V60.1129H174.135V61.6273Z" fill="#FF4F4F"/>
<path d="M183.966 54.6605H198.134V39.4791C197.134 40.5492 196.145 41.6096 195.166 42.6576V51.48H186.935C185.924 52.5624 184.934 53.6241 183.966 54.6605Z" fill="#FF4F4F"/>
<path d="M6.65825 7.53497V24.3819C7.63031 23.3403 8.62173 22.2787 9.62647 21.2014V10.7155H19.4118C20.396 9.66289 21.385 8.60055 22.3818 7.53497H6.65825Z" fill="#FF4F4F"/>
<path d="M141.231 61.3543H22.3461L7.08254 44.9989V24.57L10.0502 21.3895V11.1695H19.5873L19.7114 11.0365C20.2035 10.5105 20.6968 9.98131 21.1913 9.45144C21.6452 8.96502 22.0998 8.47795 22.5568 7.98894H25.4753L32.7978 0.90863H90.7913L98.1138 7.98894H182.447L197.71 24.3462V39.291C196.753 40.3163 195.805 41.3313 194.867 42.3359L194.741 42.4689V51.0253H186.759L183.791 54.2059H141.231V61.3543ZM21.9957 62.2629H142.078V55.1145H184.142L187.11 51.934H195.589V42.8457C196.529 41.8411 197.477 40.8255 198.434 39.7994L198.558 39.6665V23.9701L182.798 7.08031H98.4395L91.117 0H32.4716L25.1485 7.08031H22.2057L22.0816 7.21327C21.5829 7.74638 21.0872 8.2782 20.5921 8.80872C20.1387 9.29384 19.6872 9.77896 19.2369 10.2608H9.20218V21.0133L6.23456 24.1938V45.3757L6.35864 45.508L21.9957 62.2629Z" fill="#FF4F4F"/>
<path d="M138.262 58.1738H23.5737L10.0496 43.6811V11.1695H26.6158L33.9389 4.08917H89.6487L96.9724 11.1695H181.217L194.741 25.6622V51.0253H138.262V58.1738ZM23.2232 59.0824H139.11V51.934H195.589V25.286L181.568 10.2609H97.2986L89.9749 3.18054H33.6126L26.2901 10.2609H9.20167V44.0572L9.32575 44.1908L23.2232 59.0824Z" fill="#FF4F4F"/>
<path d="M178.817 55.8726H179.807V53.449H178.817V55.8726ZM176.697 55.8726H177.686V53.449H176.697V55.8726ZM174.577 55.8726H175.566V53.449H174.577V55.8726ZM172.457 55.8726H173.447V53.449H172.457V55.8726ZM170.337 55.8726H171.326V53.449H170.337V55.8726ZM168.217 55.8726H169.207V53.449H168.217V55.8726ZM166.097 55.8726H167.086V53.449H166.097V55.8726ZM163.977 55.8726H164.967V53.449H163.977V55.8726ZM161.857 55.8726H162.846V53.449H161.857V55.8726ZM159.737 55.8726H160.726V53.449H159.737V55.8726ZM157.617 55.8726H158.607V53.449H157.617V55.8726ZM155.497 55.8726H156.486V53.449H155.497V55.8726ZM153.377 55.8726H154.367V53.449H153.377V55.8726ZM151.257 55.8726H152.246V53.449H151.257V55.8726Z" fill="#FF4F4F"/>
<path d="M170.977 60.8711C170.977 60.4106 170.629 60.0377 170.199 60.0377C169.77 60.0377 169.422 60.4106 169.422 60.8711C169.422 61.3303 169.77 61.7039 170.199 61.7039C170.629 61.7039 170.977 61.3303 170.977 60.8711ZM168.008 60.8711C168.008 60.4106 167.661 60.0377 167.231 60.0377C166.801 60.0377 166.454 60.4106 166.454 60.8711C166.454 61.3303 166.801 61.7039 167.231 61.7039C167.661 61.7039 168.008 61.3303 168.008 60.8711ZM165.041 60.8711C165.041 60.4106 164.693 60.0377 164.263 60.0377C163.834 60.0377 163.486 60.4106 163.486 60.8711C163.486 61.3303 163.834 61.7039 164.263 61.7039C164.693 61.7039 165.041 61.3303 165.041 60.8711ZM162.073 60.8711C162.073 60.4106 161.724 60.0377 161.295 60.0377C160.867 60.0377 160.518 60.4106 160.518 60.8711C160.518 61.3303 160.867 61.7039 161.295 61.7039C161.724 61.7039 162.073 61.3303 162.073 60.8711ZM159.104 60.8711C159.104 60.4106 158.757 60.0377 158.327 60.0377C157.898 60.0377 157.55 60.4106 157.55 60.8711C157.55 61.3303 157.898 61.7039 158.327 61.7039C158.757 61.7039 159.104 61.3303 159.104 60.8711Z" fill="#FF4F4F"/>
<path d="M45.4384 27.4265H52.6121C53.9967 27.4265 54.6889 28.2497 54.6889 29.8963V30.4576C54.6889 31.3557 54.296 31.8048 53.5102 31.8048C52.7243 31.8048 52.3314 31.3557 52.3314 30.4576C52.3314 30.2331 52.2753 30.1208 52.163 30.1208H46.606V32.4783H51.714C52.4923 32.4783 52.8815 32.9199 52.8815 33.803V33.848C52.8815 34.7311 52.4923 35.1727 51.714 35.1727H46.606L46.6172 37.5302L52.163 37.5302C52.2753 37.5302 52.3314 37.4179 52.3314 37.1934C52.3314 36.2953 52.7243 35.8462 53.5102 35.8462C54.296 35.8462 54.6889 36.2953 54.6889 37.1934V37.7547C54.6889 39.4013 53.9967 40.2245 52.6121 40.2245L45.4384 40.2245C44.6526 40.2245 44.2597 39.7755 44.2597 38.8774V28.7512C44.2597 27.868 44.6526 27.4265 45.4384 27.4265ZM59.3142 33.7581L61.8514 30.7944C62.7345 30.7944 63.1761 31.453 63.1761 32.7702L60.8185 35.5095L63.1761 38.2487C63.1761 39.5659 62.7345 40.2245 61.8514 40.2245L59.3142 37.2608L56.7658 40.2245C55.8827 40.2245 55.4411 39.5659 55.4411 38.2487L57.7987 35.5095L55.4411 32.7702C55.4411 31.453 55.8827 30.7944 56.7658 30.7944L59.3142 33.7581ZM65.5673 30.7944C66.3531 30.7944 66.7461 31.2434 66.7461 32.1415L66.7573 38.8661C66.7573 39.7717 66.3644 40.2245 65.5785 40.2245C64.7927 40.2245 64.3997 39.7755 64.3997 38.8774L64.3885 32.1191C64.3885 31.236 64.7814 30.7944 65.5673 30.7944ZM65.5673 27.4265C66.3531 27.4265 66.7461 27.8755 66.7461 28.7736C66.7461 29.6717 66.3531 30.1208 65.5673 30.1208C64.7814 30.1208 64.3885 29.6717 64.3885 28.7736C64.3885 27.8755 64.7814 27.4265 65.5673 27.4265ZM68.9015 30.7944V28.7512C68.9015 27.868 69.2944 27.4265 70.0803 27.4265C70.8661 27.4265 71.2591 27.8718 71.2591 28.7624V30.7944H72.101C72.8869 30.7944 73.2798 31.2434 73.2798 32.1415C73.2798 33.0397 72.8869 33.4887 72.101 33.4887H71.2591V36.6321C71.2591 37.2308 71.4649 37.5302 71.8765 37.5302C72.6624 37.5302 73.0553 37.9793 73.0553 38.8774C73.0553 39.7755 72.6624 40.2245 71.8765 40.2245C69.8932 40.2245 68.9015 39.027 68.9015 36.6321V33.4887H68.2841C67.4982 33.4887 67.1053 33.0397 67.1053 32.1415C67.1053 31.2434 67.4982 30.7944 68.2841 30.7944H68.9015ZM85.3482 27.4265L93.4311 27.4265C94.8157 27.4265 95.5118 28.2497 95.5192 29.8963L95.508 30.4576C95.508 31.3482 95.1151 31.7973 94.3292 31.8048C93.5434 31.8048 93.1505 31.3557 93.1505 30.4576C93.1505 30.2256 93.0981 30.1096 92.9933 30.1096L86.2463 30.1208C85.8346 30.1208 85.6288 30.4202 85.6288 31.0189V36.6321C85.6288 37.2308 85.8346 37.5302 86.2463 37.5302L92.9933 37.519H93.0045C93.1018 37.519 93.1542 37.4105 93.1617 37.1934V37.171C93.1617 36.2803 93.5509 35.835 94.3292 35.835C95.1151 35.8425 95.508 36.2953 95.508 37.1934V37.7435C95.508 39.39 94.8232 40.2133 93.4536 40.2133H93.4424L85.3482 40.2245C83.9711 40.2245 83.2788 39.4013 83.2713 37.7547V29.8963C83.2713 28.2497 83.9636 27.4265 85.3482 27.4265ZM96.451 33.2866C96.451 31.6401 97.1433 30.8168 98.5279 30.8168H103.917C105.301 30.8168 105.993 31.6326 105.993 33.2642V37.7547C105.993 39.4013 105.301 40.2245 103.917 40.2245H98.5391C97.1545 40.2245 96.4585 39.4013 96.451 37.7547V33.2866ZM103.636 34.3868C103.628 33.803 103.419 33.5112 103.007 33.5112H99.4148C99.0106 33.5112 98.8086 33.803 98.8086 34.3868V36.6545C98.8086 37.2383 99.0106 37.5302 99.4148 37.5302H103.007C103.419 37.5302 103.628 37.2308 103.636 36.6321V34.3868ZM107.273 30.7944H113.829C115.813 30.7944 116.808 31.9919 116.816 34.3868V38.8774C116.816 39.7755 116.423 40.2245 115.637 40.2245C114.851 40.2245 114.458 39.7755 114.458 38.8774L114.447 34.3868C114.447 33.7881 114.245 33.4887 113.841 33.4887H109.631V38.8774C109.631 39.7755 109.242 40.2245 108.463 40.2245C107.677 40.2245 107.284 39.7755 107.284 38.8774L107.273 30.7944ZM120.475 30.7719L127.211 30.7832C127.997 30.7832 128.39 31.2285 128.39 32.1191C128.39 33.0172 127.997 33.4663 127.211 33.4663H120.498C120.378 33.4737 120.318 33.586 120.318 33.803C120.318 34.0276 120.374 34.1398 120.487 34.1398H125.875C127.559 34.1473 128.405 35.1652 128.412 37.1934C128.405 39.2142 127.559 40.2245 125.875 40.2245H119.14C118.354 40.2245 117.961 39.7755 117.961 38.8774C117.961 37.9793 118.354 37.5302 119.14 37.5302H125.875C125.988 37.5302 126.044 37.4179 126.044 37.1934C126.044 36.9539 125.988 36.8342 125.875 36.8342H120.487C118.803 36.8342 117.961 35.8238 117.961 33.803C117.961 31.7823 118.799 30.7719 120.475 30.7719ZM129.03 33.2866C129.03 31.6401 129.722 30.8168 131.107 30.8168H136.495C137.88 30.8168 138.572 31.6326 138.572 33.2642V37.7547C138.572 39.4013 137.88 40.2245 136.495 40.2245H131.118C129.733 40.2245 129.037 39.4013 129.03 37.7547V33.2866ZM136.215 34.3868C136.207 33.803 135.998 33.5112 135.586 33.5112H131.994C131.59 33.5112 131.387 33.803 131.387 34.3868V36.6545C131.387 37.2383 131.59 37.5302 131.994 37.5302H135.586C135.998 37.5302 136.207 37.2308 136.215 36.6321V34.3868ZM141.446 27.4265C142.232 27.4265 142.625 27.8755 142.625 28.7736V38.8661C142.625 39.7717 142.232 40.2245 141.446 40.2245C140.66 40.2245 140.268 39.7755 140.268 38.8774V28.7512C140.268 27.868 140.66 27.4265 141.446 27.4265ZM146.274 36.8566C146.274 37.3057 146.479 37.5302 146.891 37.5302H151.393C152.179 37.5302 152.572 37.9793 152.572 38.8774C152.564 39.7755 152.171 40.2245 151.393 40.2245H145.993C144.616 40.2245 143.924 39.4013 143.916 37.7547V33.2642C143.916 31.6176 144.608 30.7944 145.993 30.7944L150.484 30.8056C151.868 30.8056 152.564 31.6289 152.572 33.2754V34.3868C152.572 36.0334 151.879 36.8566 150.495 36.8566H146.274ZM149.821 34.1623C150.083 34.1623 150.214 34.05 150.214 33.8255C150.214 33.601 150.158 33.4887 150.046 33.4887H146.891C146.479 33.4887 146.274 33.7132 146.274 34.1623H149.821Z" fill="white"/>
</g>
<defs>
<clipPath id="clip0_137_7586">
<rect width="238" height="62.2616" fill="white" transform="matrix(-1 0 0 1 238 0)"/>
</clipPath>
</defs>
</svg>
