<svg width="237" height="62" viewBox="0 0 237 62" fill="none" xmlns="http://www.w3.org/2000/svg">
<g clip-path="url(#clip0_137_7573)">
<path d="M43 25.6972L56.5 11.0642H140L148 4H203.5L211 11.0642H227V44.367L213 59H99V50.9266H43V25.6972Z" fill="#FF4F4F" fill-opacity="0.63"/>
<path d="M236.844 34.1052H235.437V2.07443H219.284V0.566406H236.844V34.1052Z" fill="#FF4F4F"/>
<path d="M63.5976 61.3684H33.2246V21.1827L41.5138 12.2999L42.5089 13.3668L34.632 21.8072V59.8604H63.5976V61.3684Z" fill="#FF4F4F"/>
<path d="M53.8071 54.4308H39.6992V39.3132C40.6943 40.3788 41.6798 41.4347 42.655 42.4784V51.2637H50.8514C51.8573 52.3416 52.844 53.3988 53.8071 54.4308Z" fill="#FF4F4F"/>
<path d="M230.37 7.5033V24.2795C229.402 23.2423 228.415 22.185 227.415 21.1123V10.6705H217.67C216.69 9.62228 215.706 8.5644 214.713 7.5033H230.37Z" fill="#FF4F4F"/>
<path d="M96.3636 61.0965H214.748L229.948 44.8099V24.4667L226.993 21.2996V11.1225H217.496L217.372 10.9901C216.882 10.4664 216.391 9.93937 215.898 9.41173C215.446 8.92735 214.994 8.44233 214.539 7.95537H211.632L204.341 0.904812H146.591L139.299 7.95537H55.3206L40.1218 24.2439V39.1259C41.0747 40.1469 42.0185 41.1577 42.9527 42.1581L43.0775 42.2905V50.8109H51.0262L53.982 53.9781H96.3636V61.0965ZM215.097 62.0013H95.5192V54.8829H53.6324L50.6766 51.7157H42.2331V42.6657C41.2977 41.6653 40.3538 40.6539 39.4009 39.6322L39.2773 39.4998V23.8694L54.9704 7.05056H138.975L146.267 0H204.666L211.958 7.05056H214.888L215.012 7.18296C215.509 7.71383 216.002 8.24342 216.495 8.77171C216.947 9.25479 217.396 9.73787 217.845 10.2177H227.837V20.925L230.792 24.0922V45.1851L230.669 45.3168L215.097 62.0013Z" fill="#FF4F4F"/>
<path d="M99.318 57.9293H213.525L226.992 43.4975V11.1226H210.496L203.203 4.07199H147.727L140.435 11.1226H56.5441L43.0768 25.5543V50.8109H99.318V57.9293ZM213.874 58.8341H98.4736V51.7158H42.2324V25.1798L56.1945 10.2177H140.11L147.403 3.16718H203.528L210.82 10.2177H227.836V43.8721L227.713 44.0052L213.874 58.8341Z" fill="#FF4F4F"/>
<path d="M58.9347 55.6379H57.9492V53.2244H58.9347V55.6379ZM61.046 55.6379H60.0606V53.2244H61.046V55.6379ZM63.1567 55.6379H62.1719V53.2244H63.1567V55.6379ZM65.2681 55.6379H64.2826V53.2244H65.2681V55.6379ZM67.3788 55.6379H66.394V53.2244H67.3788V55.6379ZM69.4901 55.6379H68.5047V53.2244H69.4901V55.6379ZM71.6009 55.6379H70.616V53.2244H71.6009V55.6379ZM73.7122 55.6379H72.7268V53.2244H73.7122V55.6379ZM75.8235 55.6379H74.8381V53.2244H75.8235V55.6379ZM77.9343 55.6379H76.9494V53.2244H77.9343V55.6379ZM80.0456 55.6379H79.0602V53.2244H80.0456V55.6379ZM82.1564 55.6379H81.1715V53.2244H82.1564V55.6379ZM84.2677 55.6379H83.2822V53.2244H84.2677V55.6379ZM86.3784 55.6379H85.3936V53.2244H86.3784V55.6379Z" fill="#FF4F4F"/>
<path d="M66.7422 60.6154C66.7422 60.1568 67.0888 59.7855 67.5161 59.7855C67.944 59.7855 68.2906 60.1568 68.2906 60.6154C68.2906 61.0726 67.944 61.4446 67.5161 61.4446C67.0888 61.4446 66.7422 61.0726 66.7422 60.6154ZM69.6979 60.6154C69.6979 60.1568 70.0439 59.7855 70.4718 59.7855C70.8998 59.7855 71.2457 60.1568 71.2457 60.6154C71.2457 61.0726 70.8998 61.4446 70.4718 61.4446C70.0439 61.4446 69.6979 61.0726 69.6979 60.6154ZM72.6531 60.6154C72.6531 60.1568 72.9996 59.7855 73.4276 59.7855C73.8549 59.7855 74.2015 60.1568 74.2015 60.6154C74.2015 61.0726 73.8549 61.4446 73.4276 61.4446C72.9996 61.4446 72.6531 61.0726 72.6531 60.6154ZM75.6088 60.6154C75.6088 60.1568 75.9554 59.7855 76.3827 59.7855C76.8095 59.7855 77.1566 60.1568 77.1566 60.6154C77.1566 61.0726 76.8095 61.4446 76.3827 61.4446C75.9554 61.4446 75.6088 61.0726 75.6088 60.6154ZM78.5646 60.6154C78.5646 60.1568 78.9105 59.7855 79.3385 59.7855C79.7658 59.7855 80.1124 60.1568 80.1124 60.6154C80.1124 61.0726 79.7658 61.4446 79.3385 61.4446C78.9105 61.4446 78.5646 61.0726 78.5646 60.6154Z" fill="#FF4F4F"/>
</g>
<path d="M83.8737 27.4473C84.6209 27.4473 84.9945 27.8956 84.9945 28.7922V38.8792C84.9945 39.7758 84.6209 40.2242 83.8737 40.2242H77.9897C76.1292 40.2242 75.1989 39.0287 75.1989 36.6377V35.4833C75.1989 34.6091 75.5651 34.172 76.2973 34.172H76.3309C77.0632 34.172 77.4293 34.6203 77.4293 35.5169C77.4368 36.8618 77.9038 37.5343 78.8303 37.5343H82.753V28.7922C82.753 27.8956 83.1266 27.4473 83.8737 27.4473ZM86.1153 33.2978C86.1153 31.654 86.7691 30.8321 88.0767 30.8321H93.1201C94.4277 30.8321 95.0815 31.6465 95.0815 33.2753V37.7584C95.0815 39.4023 94.4277 40.2242 93.1201 40.2242L88.0879 40.2242C86.7803 40.2242 86.1228 39.4023 86.1153 37.7584V33.2978ZM92.84 34.3961C92.8325 33.8133 92.642 33.5219 92.2684 33.5219H88.906C88.5399 33.5219 88.3569 33.8133 88.3569 34.3961V36.6601C88.3569 37.2429 88.5399 37.5343 88.906 37.5343L92.2684 37.5343C92.642 37.5343 92.8325 37.2354 92.84 36.6377V34.3961ZM97.3231 30.8096C98.0702 30.8096 98.4438 31.2579 98.4438 32.1546L98.455 38.868C98.455 39.7721 98.0814 40.2242 97.3343 40.2242C96.5871 40.2242 96.2135 39.7758 96.2135 38.8792L96.2023 32.1322C96.2023 31.2505 96.5759 30.8096 97.3231 30.8096ZM97.3231 27.4473C98.0702 27.4473 98.4438 27.8956 98.4438 28.7922C98.4438 29.6889 98.0702 30.1372 97.3231 30.1372C96.5759 30.1372 96.2023 29.6889 96.2023 28.7922C96.2023 27.8956 96.5759 27.4473 97.3231 27.4473ZM99.587 30.8096H105.74C107.608 30.8096 108.546 32.0051 108.553 34.3961V38.8792C108.553 39.7758 108.18 40.2242 107.432 40.2242C106.685 40.2242 106.312 39.7758 106.312 38.8792L106.3 34.3961C106.3 33.7984 106.117 33.4995 105.751 33.4995H101.829V38.8792C101.829 39.7758 101.459 40.2242 100.719 40.2242C99.9718 40.2242 99.5982 39.7758 99.5982 38.8792L99.587 30.8096ZM118.651 28.7922C118.651 27.8956 119.021 27.4473 119.761 27.4473H126.071C129.336 27.4473 130.969 29.5693 130.969 33.8133V33.8581C130.969 38.1022 129.336 40.2242 126.071 40.2242H119.761C119.021 40.2242 118.648 39.7758 118.64 38.8792L118.651 28.7922ZM128.727 33.8357C128.727 31.37 127.704 30.1372 125.656 30.1372H120.882V37.5343H125.656C127.704 37.5343 128.727 36.3014 128.727 33.8357ZM133.21 30.8096C133.957 30.8096 134.331 31.2579 134.331 32.1546L134.342 38.868C134.342 39.7721 133.969 40.2242 133.222 40.2242C132.474 40.2242 132.101 39.7758 132.101 38.8792L132.09 32.1322C132.09 31.2505 132.463 30.8096 133.21 30.8096ZM133.21 27.4473C133.957 27.4473 134.331 27.8956 134.331 28.7922C134.331 29.6889 133.957 30.1372 133.21 30.1372C132.463 30.1372 132.09 29.6889 132.09 28.7922C132.09 27.8956 132.463 27.4473 133.21 27.4473ZM137.85 30.7872L144.149 30.7984C144.896 30.7984 145.27 31.243 145.27 32.1322C145.27 33.0288 144.896 33.4771 144.149 33.4771H137.873C137.768 33.4846 137.716 33.5966 137.716 33.8133C137.716 34.0375 137.764 34.1496 137.862 34.1496H142.905C144.489 34.157 145.285 35.1732 145.292 37.1981C145.285 39.2155 144.489 40.2242 142.905 40.2242H136.595C135.848 40.2242 135.474 39.7758 135.474 38.8792C135.474 37.9826 135.848 37.5343 136.595 37.5343H142.905C142.995 37.5343 143.039 37.4222 143.039 37.1981C143.039 36.959 142.995 36.8394 142.905 36.8394H137.862C136.27 36.8394 135.474 35.8307 135.474 33.8133C135.474 31.7959 136.266 30.7872 137.85 30.7872ZM148.374 30.8096L154.247 30.8208C155.555 30.8208 156.212 31.6427 156.22 33.2866V33.578C156.22 34.4522 155.846 34.893 155.099 34.9005C154.352 34.9005 153.978 34.4522 153.978 33.5555C153.978 33.5182 154.001 33.4995 154.046 33.4995H149.215C148.841 33.4995 148.655 33.7984 148.655 34.3961V36.6377C148.655 37.2354 148.841 37.5343 149.215 37.5343H154.046C154.001 37.5343 153.978 37.5081 153.978 37.4558C153.978 36.5667 154.348 36.1221 155.088 36.1221C155.835 36.1296 156.212 36.5816 156.22 37.4783L156.209 37.7584C156.209 39.4023 155.559 40.2242 154.258 40.2242H148.374C147.074 40.2242 146.421 39.4023 146.413 37.7584V33.2753C146.413 31.6315 147.067 30.8096 148.374 30.8096ZM157.352 33.2978C157.352 31.654 158.006 30.8321 159.313 30.8321L164.357 30.8321C165.664 30.8321 166.318 31.6465 166.318 33.2753V37.7584C166.318 39.4023 165.664 40.2242 164.357 40.2242H159.324C158.017 40.2242 157.359 39.4023 157.352 37.7584V33.2978ZM164.076 34.3961C164.069 33.8133 163.878 33.5219 163.505 33.5219H160.143C159.776 33.5219 159.593 33.8133 159.593 34.3961V36.6601C159.593 37.2429 159.776 37.5343 160.143 37.5343H163.505C163.878 37.5343 164.069 37.2354 164.076 36.6377V34.3961ZM167.439 30.8096H173.592C175.46 30.8096 176.398 32.0051 176.405 34.3961C176.405 35.2927 176.031 35.7411 175.284 35.7411C174.537 35.7411 174.16 35.2927 174.152 34.3961C174.152 33.7984 173.969 33.4995 173.603 33.4995H169.68V38.8792C169.68 39.7758 169.31 40.2242 168.571 40.2242C167.824 40.2242 167.45 39.7758 167.45 38.8792L167.439 30.8096ZM184.239 33.4995H180.316C179.95 33.4995 179.767 33.7984 179.767 34.3961V36.6377C179.767 37.2354 179.954 37.5343 180.328 37.5343L184.239 37.5343V33.4995ZM180.328 40.2242C178.46 40.2242 177.526 39.0287 177.526 36.6377V34.3961C177.526 32.0051 178.456 30.8096 180.316 30.8096H184.25L184.239 28.7922C184.239 27.8956 184.613 27.4473 185.36 27.4473C186.107 27.4473 186.481 27.8882 186.481 28.7698V37.5343H186.492V40.2242L180.328 40.2242Z" fill="white"/>
<defs>
<clipPath id="clip0_137_7573">
<rect width="237" height="62" fill="white"/>
</clipPath>
</defs>
</svg>
