<svg width="504" height="25" viewBox="0 0 504 25" fill="none" xmlns="http://www.w3.org/2000/svg">
<path d="M108.543 12.5425L103.897 17.1929H140.432L145.266 12.3539L108.543 12.5425Z" fill="#FF4F4F"/>
<path d="M150.978 12.5425L146.333 17.1929H182.867L187.701 12.3539L150.978 12.5425Z" fill="#FF4F4F"/>
<path d="M193.414 12.5425L188.768 17.1929H225.302L230.136 12.3539L193.414 12.5425Z" fill="#FF4F4F"/>
<path d="M235.85 12.5425L231.203 17.1929H267.739L272.571 12.3539L235.85 12.5425Z" fill="#FF4F4F"/>
<path d="M503.5 5V0.5H404.5L403.5 2L282 2.5L280.288 0.5H188V6H276.5L282.5 11.5H402.5L409.5 5H503.5Z" fill="#FF4F4F"/>
<path d="M178 5V0.5H107.5L99.5 9L34 14H16.1826V18.5H96L106 8.5L152 5H178Z" fill="#FF4F4F"/>
<circle cx="8.5" cy="16.5" r="8.5" fill="#FF4F4F"/>
</svg>
