<svg width="504" height="25" viewBox="0 0 504 25" fill="none" xmlns="http://www.w3.org/2000/svg">
<path d="M394.957 12.0425L399.603 16.6929H363.068L358.234 11.8539L394.957 12.0425Z" fill="#FF4F4F"/>
<path d="M352.522 12.0425L357.167 16.6929H320.633L315.799 11.8539L352.522 12.0425Z" fill="#FF4F4F"/>
<path d="M310.086 12.0425L314.732 16.6929H278.198L273.364 11.8539L310.086 12.0425Z" fill="#FF4F4F"/>
<path d="M267.65 12.0425L272.297 16.6929H235.761L230.929 11.8539L267.65 12.0425Z" fill="#FF4F4F"/>
<path d="M0 4.5V0H99L100 1.5L221.5 2L223.212 0H315.5V5.5H227L221 11H101L94 4.5H0Z" fill="#FF4F4F"/>
<path d="M325.5 4.5V0H396L404 8.5L469.5 13.5H487.317V18H407.5L397.5 8L351.5 4.5H325.5Z" fill="#FF4F4F"/>
<circle cx="8.5" cy="8.5" r="8.5" transform="matrix(-1 0 0 1 503.5 7.5)" fill="#FF4F4F"/>
</svg>
